<?xml version="1.0" encoding="iso-8859-1"?>
<!-- Generator: Adobe Illustrator 19.0.0, SVG Export Plug-In . SVG Version: 6.00 Build 0)  -->
<svg version="1.1" id="Layer_1" xmlns="http://www.w3.org/2000/svg" xmlns:xlink="http://www.w3.org/1999/xlink" x="0px" y="0px"
	 viewBox="0 0 512.001 512.001" style="enable-background:new 0 0 512.001 512.001;" xml:space="preserve">
<g>
	<g>
		<path d="M64.682,0v349.827v30.422v81.125h75.125v50.628l41.293-16.055l41.293,16.055v-50.628h224.925v-81.125v-30.422V0H64.682z
			 M95.104,30.422h20.281v319.405H95.104V30.422z M139.807,430.952H95.104v-10.141h44.704V430.952z M170.229,467.533v-6.159v-40.562
			h21.742v40.562v6.159l-10.871-4.226L170.229,467.533z M416.897,430.952H222.394v-10.141h194.503V430.952z M416.897,390.389
			H222.394h-82.586H95.104v-10.141h321.793V390.389z M416.897,349.827H145.807V30.422h271.091V349.827z"/>
	</g>
</g>
<g>
	<g>
		<rect x="212.496" y="84.329" width="137.719" height="30.422"/>
	</g>
</g>
<g>
	<g>
		<rect x="212.496" y="135.032" width="137.719" height="30.422"/>
	</g>
</g>
<g>
</g>
<g>
</g>
<g>
</g>
<g>
</g>
<g>
</g>
<g>
</g>
<g>
</g>
<g>
</g>
<g>
</g>
<g>
</g>
<g>
</g>
<g>
</g>
<g>
</g>
<g>
</g>
<g>
</g>
</svg>
