<?xml version="1.0" encoding="iso-8859-1"?>
<!-- Generator: Adobe Illustrator 16.0.0, SVG Export Plug-In . SVG Version: 6.00 Build 0)  -->
<!DOCTYPE svg PUBLIC "-//W3C//DTD SVG 1.1//EN" "http://www.w3.org/Graphics/SVG/1.1/DTD/svg11.dtd">
<svg version="1.1" id="Capa_1" xmlns="http://www.w3.org/2000/svg" xmlns:xlink="http://www.w3.org/1999/xlink" x="0px" y="0px"
	 width="95.44px" height="95.439px" viewBox="0 0 95.44 95.439" style="enable-background:new 0 0 95.44 95.439;"
	 xml:space="preserve">
<g>
	<g>
		<path d="M69.352,0H26.087c-4.212,0-7.635,3.423-7.635,7.636v80.168c0,4.213,3.423,7.636,7.635,7.636h43.265
			c4.214,0,7.636-3.423,7.636-7.636V7.636C76.988,3.423,73.566,0,69.352,0z M40.721,6.975c0-1.044,0.84-1.884,1.884-1.884h10.23
			c1.043,0,1.885,0.84,1.885,1.884v0.05c0,1.044-0.842,1.884-1.885,1.884h-10.23c-1.044,0-1.884-0.84-1.884-1.884V6.975z
			 M47.72,92.576c-2.278,0-4.136-1.857-4.136-4.138c0-2.276,1.857-4.135,4.136-4.135c2.277,0,4.136,1.856,4.136,4.135
			C51.856,90.719,49.997,92.576,47.72,92.576z M70.625,80.169c0,0.698-0.573,1.272-1.272,1.272H26.087
			c-0.7,0-1.272-0.574-1.272-1.272V15.271c0-0.7,0.572-1.272,1.272-1.272h43.265c0.699,0,1.272,0.572,1.272,1.272V80.169z"/>
		<path d="M64.276,64.9h-33.11c-0.697,0-1.261,0.562-1.261,1.258v0.025c0,0.696,0.563,1.26,1.261,1.26h33.11
			c0.695,0,1.26-0.562,1.26-1.26v-0.025C65.535,65.463,64.971,64.9,64.276,64.9z"/>
		<path d="M64.276,72.533h-33.11c-0.697,0-1.261,0.564-1.261,1.261v0.026c0,0.694,0.563,1.26,1.261,1.26h33.11
			c0.695,0,1.26-0.564,1.26-1.26v-0.025C65.535,73.099,64.971,72.533,64.276,72.533z"/>
		<path d="M64.276,57.264h-33.11c-0.697,0-1.261,0.564-1.261,1.26v0.025c0,0.695,0.563,1.26,1.261,1.26h33.11
			c0.695,0,1.26-0.564,1.26-1.26v-0.025C65.535,57.828,64.971,57.264,64.276,57.264z"/>
		<path d="M45.333,45.811c1.862,0,3.617-0.457,5.175-1.247l5.592,5.593c0.498,0.496,1.147,0.746,1.8,0.746
			c0.651,0,1.303-0.25,1.8-0.746c0.994-0.994,0.994-2.604,0-3.6l-5.27-5.269c1.472-1.927,2.355-4.323,2.355-6.93
			c0-6.315-5.137-11.453-11.452-11.453c-6.315,0-11.453,5.138-11.453,11.453S39.019,45.811,45.333,45.811z M45.333,26.724
			c4.21,0,7.636,3.425,7.636,7.635s-3.426,7.636-7.636,7.636c-4.211,0-7.636-3.426-7.636-7.636S41.123,26.724,45.333,26.724z"/>
	</g>
</g>
<g>
</g>
<g>
</g>
<g>
</g>
<g>
</g>
<g>
</g>
<g>
</g>
<g>
</g>
<g>
</g>
<g>
</g>
<g>
</g>
<g>
</g>
<g>
</g>
<g>
</g>
<g>
</g>
<g>
</g>
</svg>
